<?xml version="1.0" encoding="UTF-8" standalone="no"?>
<!-- Created with Inkscape (http://www.inkscape.org/) -->

<svg
   width="77.192772mm"
   height="22.619339mm"
   viewBox="0 0 77.192772 22.619339"
   version="1.1"
   id="svg5"
   inkscape:version="1.2.1 (9c6d41e, 2022-07-14)"
   sodipodi:docname="rkguo.svg"
   xmlns:inkscape="http://www.inkscape.org/namespaces/inkscape"
   xmlns:sodipodi="http://sodipodi.sourceforge.net/DTD/sodipodi-0.dtd"
   xmlns="http://www.w3.org/2000/svg"
   xmlns:svg="http://www.w3.org/2000/svg">
  <sodipodi:namedview
     id="namedview7"
     pagecolor="#505050"
     bordercolor="#eeeeee"
     borderopacity="1"
     inkscape:showpageshadow="0"
     inkscape:pageopacity="0"
     inkscape:pagecheckerboard="0"
     inkscape:deskcolor="#505050"
     inkscape:document-units="mm"
     showgrid="false"
     inkscape:zoom="1.6268101"
     inkscape:cx="150.29412"
     inkscape:cy="-3.9955492"
     inkscape:window-width="1728"
     inkscape:window-height="1051"
     inkscape:window-x="0"
     inkscape:window-y="38"
     inkscape:window-maximized="1"
     inkscape:current-layer="g5733" />
  <defs
     id="defs2" />
  <g
     inkscape:label="Layer 1"
     inkscape:groupmode="layer"
     id="layer1"
     transform="translate(-30.015436,-200.09188)">
    <g
       aria-label="RKGUO"
       id="text113-3-9"
       style="font-size:3.175px;stroke-width:0.264583"
       transform="matrix(1.0004855,0,0,1.0004697,6.6041547,39.005672)">
      <g
         id="g600">
        <g
           id="g5733">
          <g
             aria-label="_guo"
             id="text520"
             style="font-weight:bold;font-size:25.4px;font-family:Courier;-inkscape-font-specification:'Courier, Bold';fill:#c6c9d8;fill-opacity:1;stroke-width:0.264583"
             transform="matrix(0.99951475,0,0,0.99953053,-11.398915,-31.213958)" />
          <g
             id="g409">
            <path
               d="m 58.653419,211.67901 h 9.525 v 2.33164 h -9.525 z"
               id="path602"
               style="font-weight:bold;font-size:25.4px;font-family:Courier;-inkscape-font-specification:'Courier, Bold';fill:#e75740;fill-opacity:1;stroke-width:0.206156"
               transform="matrix(0.99951475,0,0,0.99953053,-11.398915,-31.213958)" />
            <path
               d="m 74.420297,200.82029 q -1.21543,0 -2.021582,0.88056 -0.79375,0.88057 -0.79375,2.24483 0,1.33945 0.79375,2.22002 0.806152,0.86816 2.021582,0.86816 1.227832,0 2.021582,-0.86816 0.806152,-0.88057 0.806152,-2.22002 0,-1.36426 -0.806152,-2.24483 -0.79375,-0.88056 -2.021582,-0.88056 z m 3.075781,-1.16582 v -0.64492 q 0,-0.24805 0.173633,-0.37207 0.186035,-0.13643 0.545703,-0.13643 h 2.021582 q 0.855762,0 1.203028,0.32246 0.347265,0.31006 0.347265,1.0294 0,0.66972 -0.347265,1.01699 -0.334864,0.34726 -0.992188,0.34726 h -0.21084 v 8.54522 q 0,2.71611 -1.475879,3.94394 -1.475879,1.22784 -4.737695,1.22784 -2.021582,0 -2.976562,-0.39688 -0.942579,-0.39687 -0.942579,-1.25264 0,-0.59531 0.384473,-0.96738 0.384473,-0.37207 1.016992,-0.37207 0.161231,0 1.066602,0.11162 0.905371,0.11162 1.674316,0.11162 1.773535,0 2.443262,-0.66972 0.682129,-0.66973 0.682129,-2.40606 v -0.5581 q -0.880567,0.50849 -1.748731,0.75654 -0.855761,0.23564 -1.785937,0.23564 -2.492871,0 -4.080371,-1.55029 -1.575098,-1.56269 -1.575098,-4.00596 0,-2.51767 1.649512,-4.14238 1.661914,-1.62471 4.241601,-1.62471 1.116211,0 1.959571,0.35967 0.843359,0.34727 1.463476,1.09141 z"
               id="path604"
               style="font-weight:bold;font-size:25.4px;font-family:Courier;-inkscape-font-specification:'Courier, Bold';fill:#c6c9d8;fill-opacity:1;stroke-width:0.264583"
               transform="matrix(0.99951475,0,0,0.99953053,-11.398915,-31.213958)" />
            <path
               d="m 91.966313,201.21716 h -0.19844 q -0.669725,0 -1.016991,-0.34726 -0.334863,-0.34727 -0.334863,-1.01699 0,-0.73174 0.347265,-1.0418 0.347266,-0.31006 1.203029,-0.31006 h 2.34404 q 0.33486,0 0.5209,0.14883 0.18604,0.13642 0.18604,0.38447 v 8.21035 h 0.19843 q 0.66973,0 1.01699,0.34727 0.35967,0.34726 0.35967,0.99219 0,0.74414 -0.35967,1.0666 -0.35966,0.31006 -1.21542,0.31006 h -2.0836 q -0.34726,0 -0.5457,-0.14883 -0.18604,-0.14883 -0.18604,-0.40928 v -0.94258 q -0.595309,0.89297 -1.463473,1.33945 -0.855762,0.44649 -2.021582,0.44649 -1.996778,0 -2.964161,-1.20303 -0.967382,-1.20303 -0.967382,-3.68349 v -4.14239 h -0.21084 q -0.669727,0 -1.016992,-0.34726 -0.347266,-0.34727 -0.347266,-1.01699 0,-0.73174 0.347266,-1.0418 0.359668,-0.31006 1.227832,-0.31006 h 2.33164 q 0.334864,0 0.508496,0.14883 0.173633,0.13642 0.173633,0.38447 v 5.76709 q 0,1.52549 0.42168,2.14561 0.42168,0.62011 1.389062,0.62011 1.029395,0 1.686719,-0.75654 0.669728,-0.76895 0.669728,-2.00918 z"
               id="path606"
               style="font-weight:bold;font-size:25.4px;font-family:Courier;-inkscape-font-specification:'Courier, Bold';fill:#c6c9d8;fill-opacity:1;stroke-width:0.264583"
               transform="matrix(0.99951475,0,0,0.99953053,-11.398915,-31.213958)" />
            <path
               d="m 105.24922,200.84509 q -1.45107,0 -2.39365,0.95498 -0.93018,0.94258 -0.93018,2.41846 0,1.48828 0.93018,2.46807 0.94258,0.96738 2.39365,0.96738 1.45107,0 2.39365,-0.96738 0.94258,-0.97979 0.94258,-2.46807 0,-1.47588 -0.94258,-2.41846 -0.93017,-0.95498 -2.39365,-0.95498 z m 0,-2.61689 q 3.01377,0 4.88652,1.68672 1.87276,1.68672 1.87276,4.32842 0,2.6541 -1.87276,4.34082 -1.87275,1.68671 -4.88652,1.68671 -3.00137,0 -4.87412,-1.68671 -1.872757,-1.68672 -1.872757,-4.34082 0,-2.6417 1.872757,-4.32842 1.88515,-1.68672 4.87412,-1.68672 z"
               id="path608"
               style="font-weight:bold;font-size:25.4px;font-family:Courier;-inkscape-font-specification:'Courier, Bold';fill:#c6c9d8;fill-opacity:1;stroke-width:0.264583"
               transform="matrix(0.99951475,0,0,0.99953053,-11.398915,-31.213958)" />
            <rect
               style="fill:#e75740;fill-opacity:1;stroke-width:0.307565"
               id="rect334"
               width="3.175"
               height="17.991667"
               x="34.131248"
               y="197.11458"
               inkscape:label="rect334"
               transform="matrix(0.99951475,0,0,0.99953053,-10.714766,-36.011462)" />
            <path
               d="m 30.426921,178.9938 -3.8862,-7.13739 0.0093,-0.0198 c 5.763536,-2.76493 5.203031,-10.82603 -3.135806,-10.82603 h 4.244138 c 0.8636,0 1.7018,0.0931 2.5146,0.2794 0.829733,0.16933 1.566333,0.46567 2.2098,0.889 0.6604,0.42333 1.185333,0.98213 1.5748,1.6764 0.389467,0.69427 0.5842,1.55787 0.5842,2.5908 0,1.2192 -0.3302,2.24367 -0.9906,3.0734 -0.6604,0.82973 -1.5748,1.4224 -2.7432,1.778 l 4.699,7.69619 z"
               style="font-weight:bold;font-size:25.4px;font-family:'Avenir Next';-inkscape-font-specification:'Avenir Next, Bold';fill:#c6c9d8;fill-opacity:1"
               id="path310-9"
               sodipodi:nodetypes="ccccsccsssccc" />
            <path
               d="m 40.198716,178.99377 c -1.911385,-2.63515 -2.716324,-3.72498 -7.071084,-9.37183 l 7.779988,-8.61136 h 5.126463 l -7.306408,8.2804 7.292276,9.70279 z"
               style="font-weight:bold;font-size:25.4px;font-family:'Avenir Next';-inkscape-font-specification:'Avenir Next, Bold';fill:#c6c9d8;fill-opacity:1;stroke-width:0.256949"
               id="path312-6"
               sodipodi:nodetypes="ccccccc" />
          </g>
        </g>
      </g>
    </g>
  </g>
</svg>
